<?xml version="1.0" encoding="utf-8" standalone="no"?>
<!DOCTYPE svg PUBLIC "-//W3C//DTD SVG 1.1//EN"
  "http://www.w3.org/Graphics/SVG/1.1/DTD/svg11.dtd">
<svg xmlns:xlink="http://www.w3.org/1999/xlink" width="453.54pt" height="205pt" viewBox="0 0 453.54 205" xmlns="http://www.w3.org/2000/svg" version="1.1">
 <metadata>
  <rdf:RDF xmlns:dc="http://purl.org/dc/elements/1.1/" xmlns:cc="http://creativecommons.org/ns#" xmlns:rdf="http://www.w3.org/1999/02/22-rdf-syntax-ns#">
   <cc:Work>
    <dc:type rdf:resource="http://purl.org/dc/dcmitype/StillImage"/>
    <dc:date>2026-09-15T23:28:52.654330</dc:date>
    <dc:format>image/svg+xml</dc:format>
    <dc:creator>
     <cc:Agent>
      <dc:title>Matplotlib v3.11.2, https://matplotlib.org/</dc:title>
     </cc:Agent>
    </dc:creator>
   </cc:Work>
  </rdf:RDF>
 </metadata>
 <defs>
  <style type="text/css">*{stroke-linejoin: round; stroke-linecap: butt}</style>
 </defs>
 <g id="figure_1">
  <g id="patch_1">
   <path d="M 0 205 
L 453.54 205 
L 453.54 0 
L 0 0 
z
" style="fill: #ffffff"/>
  </g>
  <g id="axes_1">
   <g id="patch_2">
    <path d="M 4 43 
L 449.54 43 
Q 453.54 43 453.54 47 
L 453.54 62 
Q 453.54 66 449.54 66 
L 4 66 
Q 0 66 0 62 
L 0 47 
Q 0 43 4 43 
z
" clip-path="url(#p65ae543ba2)" style="fill: #f0e8f7"/>
   </g>
   <g id="patch_3">
    <path d="M 4 70 
L 449.54 70 
Q 453.54 70 453.54 74 
L 453.54 89 
Q 453.54 93 449.54 93 
L 4 93 
Q 0 93 0 89 
L 0 74 
Q 0 70 4 70 
z
" clip-path="url(#p65ae543ba2)" style="fill: #e5f4f0"/>
   </g>
   <g id="patch_4">
    <path d="M 4 97 
L 449.54 97 
Q 453.54 97 453.54 101 
L 453.54 116 
Q 453.54 120 449.54 120 
L 4 120 
Q 0 120 0 116 
L 0 101 
Q 0 97 4 97 
z
" clip-path="url(#p65ae543ba2)" style="fill: #e9f2f9"/>
   </g>
   <g id="patch_5">
    <path d="M 71 125.996094 
Q 71 131.998012 71 136.602388 
" clip-path="url(#p65ae543ba2)" style="fill: none; stroke: #643a91; stroke-width: 1.25; stroke-linecap: round"/>
    <path d="M 72.6 133.402388 
L 71 136.602388 
L 69.4 133.402388 
z
" clip-path="url(#p65ae543ba2)" style="fill: #643a91; stroke: #643a91; stroke-width: 1.25; stroke-linecap: round"/>
   </g>
   <g id="line2d_1">
    <path d="M 0 144 
L 143 144 
" clip-path="url(#p65ae543ba2)" style="fill: none; stroke: #643a91; stroke-width: 3; stroke-linecap: square"/>
   </g>
   <g id="patch_6">
    <path d="M 226 125.996094 
Q 226 131.998012 226 136.602388 
" clip-path="url(#p65ae543ba2)" style="fill: none; stroke: #008878; stroke-width: 1.25; stroke-linecap: round"/>
    <path d="M 227.6 133.402388 
L 226 136.602388 
L 224.4 133.402388 
z
" clip-path="url(#p65ae543ba2)" style="fill: #008878; stroke: #008878; stroke-width: 1.25; stroke-linecap: round"/>
   </g>
   <g id="line2d_2">
    <path d="M 155 144 
L 298 144 
" clip-path="url(#p65ae543ba2)" style="fill: none; stroke: #008878; stroke-width: 3; stroke-linecap: square"/>
   </g>
   <g id="patch_7">
    <path d="M 381 125.996094 
Q 381 131.998012 381 136.602388 
" clip-path="url(#p65ae543ba2)" style="fill: none; stroke: #2376ab; stroke-width: 1.25; stroke-linecap: round"/>
    <path d="M 382.6 133.402388 
L 381 136.602388 
L 379.4 133.402388 
z
" clip-path="url(#p65ae543ba2)" style="fill: #2376ab; stroke: #2376ab; stroke-width: 1.25; stroke-linecap: round"/>
   </g>
   <g id="line2d_3">
    <path d="M 310 144 
L 453 144 
" clip-path="url(#p65ae543ba2)" style="fill: none; stroke: #2376ab; stroke-width: 3; stroke-linecap: square"/>
   </g>
   <g id="text_1">
    <text style="font-weight: 700; font-size: 10.5px; font-family: 'Arial', 'DejaVu Sans', sans-serif; text-anchor: start; fill: #263748" x="0" y="11.716875" transform="rotate(-0 0 11.716875)">One passage, several linked pieces of evidence</text>
   </g>
   <g id="text_2">
    <text style="font-size: 7.6px; font-family: 'Arial', 'DejaVu Sans', sans-serif; text-anchor: start; fill: #647487" x="0" y="26.9665" transform="rotate(-0 0 26.9665)">Synthetic example; contextual relations are not verified causal effects.</text>
   </g>
   <g id="text_3">
    <text style="font-size: 9px; font-family: 'Arial', 'DejaVu Sans', sans-serif; text-anchor: start; fill: #643a91" x="9" y="56.381484" transform="rotate(-0 9 56.381484)">After the new climate plan was announced,</text>
   </g>
   <g id="text_4">
    <text style="font-size: 9px; font-family: 'Arial', 'DejaVu Sans', sans-serif; text-anchor: start; fill: #008878" x="9" y="83.273906" transform="rotate(-0 9 83.273906)">I still worry about the world my children will inherit</text>
   </g>
   <g id="text_5">
    <text style="font-size: 9px; font-family: 'Arial', 'DejaVu Sans', sans-serif; text-anchor: start; fill: #2376ab" x="9" y="110.273906" transform="rotate(-0 9 110.273906)">because major emitters are not being held accountable.</text>
   </g>
   <g id="text_6">
    <text style="font-weight: 700; font-size: 8.6px; font-family: 'Arial', 'DejaVu Sans', sans-serif; text-anchor: start; fill: #643a91" x="3" y="161.172844" transform="rotate(-0 3 161.172844)">Policy announcement</text>
   </g>
   <g id="text_7">
    <text style="font-size: 7.7px; font-family: 'Arial', 'DejaVu Sans', sans-serif; text-anchor: start; fill: #647487" x="3" y="176.992375" transform="rotate(-0 3 176.992375)">Temporal reference only</text>
   </g>
   <g id="text_8">
    <text style="font-weight: 700; font-size: 8.6px; font-family: 'Arial', 'DejaVu Sans', sans-serif; text-anchor: start; fill: #008878" x="158" y="161.22525" transform="rotate(-0 158 161.22525)">Worry about the future</text>
   </g>
   <g id="text_9">
    <text style="font-size: 7.7px; font-family: 'Arial', 'DejaVu Sans', sans-serif; text-anchor: start; fill: #647487" x="158" y="176.992375" transform="rotate(-0 158 176.992375)">Family / next generation</text>
   </g>
   <g id="text_10">
    <text style="font-weight: 700; font-size: 8.6px; font-family: 'Arial', 'DejaVu Sans', sans-serif; text-anchor: start; fill: #2376ab" x="313" y="161.172844" transform="rotate(-0 313 161.172844)">Emitters; accountability</text>
   </g>
   <g id="text_11">
    <text style="font-size: 7.7px; font-family: 'Arial', 'DejaVu Sans', sans-serif; text-anchor: start; fill: #647487" x="313" y="176.945453" transform="rotate(-0 313 176.945453)">Negation retained</text>
   </g>
   <g id="text_12">
    <text style="font-size: 7.8px; font-family: 'Arial', 'DejaVu Sans', sans-serif; text-anchor: start; fill: #647487" x="0" y="201.01825" transform="rotate(-0 0 201.01825)">Still unresolved: policy caused the worry; who has the duty to act.</text>
   </g>
  </g>
 </g>
 <defs>
  <clipPath id="p65ae543ba2">
   <rect x="0" y="0" width="453.54" height="205"/>
  </clipPath>
 </defs>
</svg>
