<?xml version="1.0" encoding="utf-8" standalone="no"?>
<!DOCTYPE svg PUBLIC "-//W3C//DTD SVG 1.1//EN"
  "http://www.w3.org/Graphics/SVG/1.1/DTD/svg11.dtd">
<svg xmlns:xlink="http://www.w3.org/1999/xlink" width="518.76pt" height="424.8pt" viewBox="0 0 518.76 424.8" xmlns="http://www.w3.org/2000/svg" version="1.1">
 <metadata>
  <rdf:RDF xmlns:dc="http://purl.org/dc/elements/1.1/" xmlns:cc="http://creativecommons.org/ns#" xmlns:rdf="http://www.w3.org/1999/02/22-rdf-syntax-ns#">
   <cc:Work>
    <dc:type rdf:resource="http://purl.org/dc/dcmitype/StillImage"/>
    <dc:date>2026-09-22T07:36:15.943799</dc:date>
    <dc:format>image/svg+xml</dc:format>
    <dc:creator>
     <cc:Agent>
      <dc:title>Matplotlib v3.11.2, https://matplotlib.org/</dc:title>
     </cc:Agent>
    </dc:creator>
   </cc:Work>
  </rdf:RDF>
 </metadata>
 <defs>
  <style type="text/css">*{stroke-linejoin: round; stroke-linecap: butt}</style>
 </defs>
 <g id="figure_1">
  <g id="patch_1">
   <path d="M 0 424.8 
L 518.76 424.8 
L 518.76 0 
L 0 0 
z
" style="fill: #ffffff"/>
  </g>
  <g id="axes_1">
   <g id="patch_2">
    <path d="M 59.180558 139.433399 
L 505.7964 139.433399 
L 505.7964 60.314344 
L 59.180558 60.314344 
z
" style="fill: #ffffff"/>
   </g>
   <g id="patch_3">
    <path d="M 79.481278 139.433399 
L 89.891904 139.433399 
L 89.891904 60.314344 
L 79.481278 60.314344 
z
" clip-path="url(#p7106f9b0a0)" style="fill: #d9d9d9; opacity: 0.35; stroke: #d9d9d9; stroke-linejoin: miter"/>
   </g>
   <g id="patch_4">
    <path d="M 475.085054 139.433399 
L 485.49568 139.433399 
L 485.49568 60.314344 
L 475.085054 60.314344 
z
" clip-path="url(#p7106f9b0a0)" style="fill: #d9d9d9; opacity: 0.35; stroke: #d9d9d9; stroke-linejoin: miter"/>
   </g>
   <g id="patch_5">
    <path d="M 80.418234 139.433399 
L 88.954947 139.433399 
L 88.954947 139.433399 
L 80.418234 139.433399 
z
" clip-path="url(#p7106f9b0a0)" style="fill: #24495f"/>
   </g>
   <g id="patch_6">
    <path d="M 90.82886 139.433399 
L 99.365573 139.433399 
L 99.365573 139.433399 
L 90.82886 139.433399 
z
" clip-path="url(#p7106f9b0a0)" style="fill: #24495f"/>
   </g>
   <g id="patch_7">
    <path d="M 101.239486 139.433399 
L 109.776199 139.433399 
L 109.776199 139.433399 
L 101.239486 139.433399 
z
" clip-path="url(#p7106f9b0a0)" style="fill: #24495f"/>
   </g>
   <g id="patch_8">
    <path d="M 111.650111 139.433399 
L 120.186824 139.433399 
L 120.186824 139.433399 
L 111.650111 139.433399 
z
" clip-path="url(#p7106f9b0a0)" style="fill: #24495f"/>
   </g>
   <g id="patch_9">
    <path d="M 122.060737 139.433399 
L 130.59745 139.433399 
L 130.59745 139.433399 
L 122.060737 139.433399 
z
" clip-path="url(#p7106f9b0a0)" style="fill: #24495f"/>
   </g>
   <g id="patch_10">
    <path d="M 132.471363 139.433399 
L 141.008076 139.433399 
L 141.008076 138.772421 
L 132.471363 138.772421 
z
" clip-path="url(#p7106f9b0a0)" style="fill: #24495f"/>
   </g>
   <g id="patch_11">
    <path d="M 142.881988 139.433399 
L 151.418701 139.433399 
L 151.418701 138.772421 
L 142.881988 138.772421 
z
" clip-path="url(#p7106f9b0a0)" style="fill: #24495f"/>
   </g>
   <g id="patch_12">
    <path d="M 153.292614 139.433399 
L 161.829327 139.433399 
L 161.829327 139.433399 
L 153.292614 139.433399 
z
" clip-path="url(#p7106f9b0a0)" style="fill: #24495f"/>
   </g>
   <g id="patch_13">
    <path d="M 163.70324 139.433399 
L 172.239953 139.433399 
L 172.239953 139.433399 
L 163.70324 139.433399 
z
" clip-path="url(#p7106f9b0a0)" style="fill: #24495f"/>
   </g>
   <g id="patch_14">
    <path d="M 174.113865 139.433399 
L 182.650579 139.433399 
L 182.650579 138.772421 
L 174.113865 138.772421 
z
" clip-path="url(#p7106f9b0a0)" style="fill: #24495f"/>
   </g>
   <g id="patch_15">
    <path d="M 184.524491 139.433399 
L 193.061204 139.433399 
L 193.061204 138.772421 
L 184.524491 138.772421 
z
" clip-path="url(#p7106f9b0a0)" style="fill: #24495f"/>
   </g>
   <g id="patch_16">
    <path d="M 194.935117 139.433399 
L 203.47183 139.433399 
L 203.47183 138.111443 
L 194.935117 138.111443 
z
" clip-path="url(#p7106f9b0a0)" style="fill: #24495f"/>
   </g>
   <g id="patch_17">
    <path d="M 205.345743 139.433399 
L 213.882456 139.433399 
L 213.882456 137.450466 
L 205.345743 137.450466 
z
" clip-path="url(#p7106f9b0a0)" style="fill: #24495f"/>
   </g>
   <g id="patch_18">
    <path d="M 215.756368 139.433399 
L 224.293081 139.433399 
L 224.293081 138.111443 
L 215.756368 138.111443 
z
" clip-path="url(#p7106f9b0a0)" style="fill: #24495f"/>
   </g>
   <g id="patch_19">
    <path d="M 226.166994 139.433399 
L 234.703707 139.433399 
L 234.703707 138.772421 
L 226.166994 138.772421 
z
" clip-path="url(#p7106f9b0a0)" style="fill: #24495f"/>
   </g>
   <g id="patch_20">
    <path d="M 236.57762 139.433399 
L 245.114333 139.433399 
L 245.114333 138.111443 
L 236.57762 138.111443 
z
" clip-path="url(#p7106f9b0a0)" style="fill: #24495f"/>
   </g>
   <g id="patch_21">
    <path d="M 246.988245 139.433399 
L 255.524958 139.433399 
L 255.524958 136.789488 
L 246.988245 136.789488 
z
" clip-path="url(#p7106f9b0a0)" style="fill: #24495f"/>
   </g>
   <g id="patch_22">
    <path d="M 257.398871 139.433399 
L 265.935584 139.433399 
L 265.935584 135.467532 
L 257.398871 135.467532 
z
" clip-path="url(#p7106f9b0a0)" style="fill: #24495f"/>
   </g>
   <g id="patch_23">
    <path d="M 267.809497 139.433399 
L 276.34621 139.433399 
L 276.34621 137.450466 
L 267.809497 137.450466 
z
" clip-path="url(#p7106f9b0a0)" style="fill: #24495f"/>
   </g>
   <g id="patch_24">
    <path d="M 278.220122 139.433399 
L 286.756835 139.433399 
L 286.756835 132.82362 
L 278.220122 132.82362 
z
" clip-path="url(#p7106f9b0a0)" style="fill: #24495f"/>
   </g>
   <g id="patch_25">
    <path d="M 288.630748 139.433399 
L 297.167461 139.433399 
L 297.167461 130.840686 
L 288.630748 130.840686 
z
" clip-path="url(#p7106f9b0a0)" style="fill: #24495f"/>
   </g>
   <g id="patch_26">
    <path d="M 299.041374 139.433399 
L 307.578087 139.433399 
L 307.578087 113.655261 
L 299.041374 113.655261 
z
" clip-path="url(#p7106f9b0a0)" style="fill: #24495f"/>
   </g>
   <g id="patch_27">
    <path d="M 309.451999 139.433399 
L 317.988713 139.433399 
L 317.988713 130.179709 
L 309.451999 130.179709 
z
" clip-path="url(#p7106f9b0a0)" style="fill: #24495f"/>
   </g>
   <g id="patch_28">
    <path d="M 319.862625 139.433399 
L 328.399338 139.433399 
L 328.399338 79.28441 
L 319.862625 79.28441 
z
" clip-path="url(#p7106f9b0a0)" style="fill: #24495f"/>
   </g>
   <g id="patch_29">
    <path d="M 330.273251 139.433399 
L 338.809964 139.433399 
L 338.809964 89.199078 
L 330.273251 89.199078 
z
" clip-path="url(#p7106f9b0a0)" style="fill: #24495f"/>
   </g>
   <g id="patch_30">
    <path d="M 340.683877 139.433399 
L 349.22059 139.433399 
L 349.22059 64.081918 
L 340.683877 64.081918 
z
" clip-path="url(#p7106f9b0a0)" style="fill: #24495f"/>
   </g>
   <g id="patch_31">
    <path d="M 351.094502 139.433399 
L 359.631215 139.433399 
L 359.631215 105.723526 
L 351.094502 105.723526 
z
" clip-path="url(#p7106f9b0a0)" style="fill: #24495f"/>
   </g>
   <g id="patch_32">
    <path d="M 361.505128 139.433399 
L 370.041841 139.433399 
L 370.041841 118.282106 
L 361.505128 118.282106 
z
" clip-path="url(#p7106f9b0a0)" style="fill: #24495f"/>
   </g>
   <g id="patch_33">
    <path d="M 371.915754 139.433399 
L 380.452467 139.433399 
L 380.452467 118.282106 
L 371.915754 118.282106 
z
" clip-path="url(#p7106f9b0a0)" style="fill: #24495f"/>
   </g>
   <g id="patch_34">
    <path d="M 382.326379 139.433399 
L 390.863092 139.433399 
L 390.863092 121.586996 
L 382.326379 121.586996 
z
" clip-path="url(#p7106f9b0a0)" style="fill: #24495f"/>
   </g>
   <g id="patch_35">
    <path d="M 392.737005 139.433399 
L 401.273718 139.433399 
L 401.273718 117.621128 
L 392.737005 117.621128 
z
" clip-path="url(#p7106f9b0a0)" style="fill: #24495f"/>
   </g>
   <g id="patch_36">
    <path d="M 403.147631 139.433399 
L 411.684344 139.433399 
L 411.684344 127.535797 
L 403.147631 127.535797 
z
" clip-path="url(#p7106f9b0a0)" style="fill: #24495f"/>
   </g>
   <g id="patch_37">
    <path d="M 413.558256 139.433399 
L 422.094969 139.433399 
L 422.094969 124.230907 
L 413.558256 124.230907 
z
" clip-path="url(#p7106f9b0a0)" style="fill: #24495f"/>
   </g>
   <g id="patch_38">
    <path d="M 423.968882 139.433399 
L 432.505595 139.433399 
L 432.505595 101.096681 
L 423.968882 101.096681 
z
" clip-path="url(#p7106f9b0a0)" style="fill: #24495f"/>
   </g>
   <g id="patch_39">
    <path d="M 434.379508 139.433399 
L 442.916221 139.433399 
L 442.916221 83.250277 
L 434.379508 83.250277 
z
" clip-path="url(#p7106f9b0a0)" style="fill: #24495f"/>
   </g>
   <g id="patch_40">
    <path d="M 444.790133 139.433399 
L 453.326847 139.433399 
L 453.326847 88.5381 
L 444.790133 88.5381 
z
" clip-path="url(#p7106f9b0a0)" style="fill: #24495f"/>
   </g>
   <g id="patch_41">
    <path d="M 455.200759 139.433399 
L 463.737472 139.433399 
L 463.737472 89.860056 
L 455.200759 89.860056 
z
" clip-path="url(#p7106f9b0a0)" style="fill: #24495f"/>
   </g>
   <g id="patch_42">
    <path d="M 465.611385 139.433399 
L 474.148098 139.433399 
L 474.148098 83.911255 
L 465.611385 83.911255 
z
" clip-path="url(#p7106f9b0a0)" style="fill: #24495f"/>
   </g>
   <g id="patch_43">
    <path d="M 476.022011 139.433399 
L 484.558724 139.433399 
L 484.558724 89.860056 
L 476.022011 89.860056 
z
" clip-path="url(#p7106f9b0a0)" style="fill: #24495f"/>
   </g>
   <g id="matplotlib.axis_1">
    <g id="xtick_1">
     <g id="line2d_1">
      <defs>
       <path id="m95e7300291" d="M 0 0 
L 0 3.5 
" style="stroke: #000000; stroke-width: 0.8"/>
      </defs>
      <g>
       <use xlink:href="#m95e7300291" x="84.686591" y="139.433399" style="stroke: #000000; stroke-width: 0.8"/>
      </g>
     </g>
    </g>
    <g id="xtick_2">
     <g id="line2d_2">
      <g>
       <use xlink:href="#m95e7300291" x="115.918468" y="139.433399" style="stroke: #000000; stroke-width: 0.8"/>
      </g>
     </g>
    </g>
    <g id="xtick_3">
     <g id="line2d_3">
      <g>
       <use xlink:href="#m95e7300291" x="147.150345" y="139.433399" style="stroke: #000000; stroke-width: 0.8"/>
      </g>
     </g>
    </g>
    <g id="xtick_4">
     <g id="line2d_4">
      <g>
       <use xlink:href="#m95e7300291" x="178.382222" y="139.433399" style="stroke: #000000; stroke-width: 0.8"/>
      </g>
     </g>
    </g>
    <g id="xtick_5">
     <g id="line2d_5">
      <g>
       <use xlink:href="#m95e7300291" x="209.614099" y="139.433399" style="stroke: #000000; stroke-width: 0.8"/>
      </g>
     </g>
    </g>
    <g id="xtick_6">
     <g id="line2d_6">
      <g>
       <use xlink:href="#m95e7300291" x="240.845976" y="139.433399" style="stroke: #000000; stroke-width: 0.8"/>
      </g>
     </g>
    </g>
    <g id="xtick_7">
     <g id="line2d_7">
      <g>
       <use xlink:href="#m95e7300291" x="272.077853" y="139.433399" style="stroke: #000000; stroke-width: 0.8"/>
      </g>
     </g>
    </g>
    <g id="xtick_8">
     <g id="line2d_8">
      <g>
       <use xlink:href="#m95e7300291" x="303.30973" y="139.433399" style="stroke: #000000; stroke-width: 0.8"/>
      </g>
     </g>
    </g>
    <g id="xtick_9">
     <g id="line2d_9">
      <g>
       <use xlink:href="#m95e7300291" x="334.541607" y="139.433399" style="stroke: #000000; stroke-width: 0.8"/>
      </g>
     </g>
    </g>
    <g id="xtick_10">
     <g id="line2d_10">
      <g>
       <use xlink:href="#m95e7300291" x="365.773484" y="139.433399" style="stroke: #000000; stroke-width: 0.8"/>
      </g>
     </g>
    </g>
    <g id="xtick_11">
     <g id="line2d_11">
      <g>
       <use xlink:href="#m95e7300291" x="397.005362" y="139.433399" style="stroke: #000000; stroke-width: 0.8"/>
      </g>
     </g>
    </g>
    <g id="xtick_12">
     <g id="line2d_12">
      <g>
       <use xlink:href="#m95e7300291" x="428.237239" y="139.433399" style="stroke: #000000; stroke-width: 0.8"/>
      </g>
     </g>
    </g>
    <g id="xtick_13">
     <g id="line2d_13">
      <g>
       <use xlink:href="#m95e7300291" x="459.469116" y="139.433399" style="stroke: #000000; stroke-width: 0.8"/>
      </g>
     </g>
    </g>
   </g>
   <g id="matplotlib.axis_2">
    <g id="ytick_1">
     <g id="line2d_14">
      <defs>
       <path id="mf4d218036f" d="M 0 0 
L -3.5 0 
" style="stroke: #000000; stroke-width: 0.8"/>
      </defs>
      <g>
       <use xlink:href="#mf4d218036f" x="59.180558" y="139.433399" style="stroke: #000000; stroke-width: 0.8"/>
      </g>
     </g>
     <g id="text_1">
      <text style="font-size: 6.2px; font-family: 'DejaVu Sans'; text-anchor: end" x="52.180558" y="141.788673" transform="rotate(-0 52.180558 141.788673)">0</text>
     </g>
    </g>
    <g id="ytick_2">
     <g id="line2d_15">
      <g>
       <use xlink:href="#mf4d218036f" x="59.180558" y="119.604062" style="stroke: #000000; stroke-width: 0.8"/>
      </g>
     </g>
     <g id="text_2">
      <text style="font-size: 6.2px; font-family: 'DejaVu Sans'; text-anchor: end" x="52.180558" y="121.959335" transform="rotate(-0 52.180558 121.959335)">30</text>
     </g>
    </g>
    <g id="ytick_3">
     <g id="line2d_16">
      <g>
       <use xlink:href="#mf4d218036f" x="59.180558" y="99.774725" style="stroke: #000000; stroke-width: 0.8"/>
      </g>
     </g>
     <g id="text_3">
      <text style="font-size: 6.2px; font-family: 'DejaVu Sans'; text-anchor: end" x="52.180558" y="102.129998" transform="rotate(-0 52.180558 102.129998)">60</text>
     </g>
    </g>
    <g id="ytick_4">
     <g id="line2d_17">
      <g>
       <use xlink:href="#mf4d218036f" x="59.180558" y="79.945388" style="stroke: #000000; stroke-width: 0.8"/>
      </g>
     </g>
     <g id="text_4">
      <text style="font-size: 6.2px; font-family: 'DejaVu Sans'; text-anchor: end" x="52.180558" y="82.300661" transform="rotate(-0 52.180558 82.300661)">90</text>
     </g>
    </g>
    <g id="text_5">
     <text style="font-size: 7.5px; font-family: 'DejaVu Sans'; text-anchor: middle" x="38.4893" y="99.873871" transform="rotate(-90 38.4893 99.873871)">Records</text>
    </g>
   </g>
   <g id="patch_44">
    <path d="M 59.180558 139.433399 
L 59.180558 60.314344 
" style="fill: none; stroke: #777777; stroke-width: 0.8; stroke-linejoin: miter; stroke-linecap: square"/>
   </g>
   <g id="patch_45">
    <path d="M 59.180558 139.433399 
L 505.7964 139.433399 
" style="fill: none; stroke: #777777; stroke-width: 0.8; stroke-linejoin: miter; stroke-linecap: square"/>
   </g>
   <g id="text_6">
    <text style="font-weight: 700; font-size: 8.5px; font-family: 'DejaVu Sans'; text-anchor: start" x="59.180558" y="54.314344" transform="rotate(-0 59.180558 54.314344)">Policy-source publication records</text>
   </g>
  </g>
  <g id="axes_2">
   <g id="patch_46">
    <path d="M 59.180558 243.537908 
L 505.7964 243.537908 
L 505.7964 164.418852 
L 59.180558 164.418852 
z
" style="fill: #ffffff"/>
   </g>
   <g id="patch_47">
    <path d="M 79.481278 243.537908 
L 89.891904 243.537908 
L 89.891904 164.418852 
L 79.481278 164.418852 
z
" clip-path="url(#pe7339612a8)" style="fill: #d9d9d9; opacity: 0.35; stroke: #d9d9d9; stroke-linejoin: miter"/>
   </g>
   <g id="patch_48">
    <path d="M 475.085054 243.537908 
L 485.49568 243.537908 
L 485.49568 164.418852 
L 475.085054 164.418852 
z
" clip-path="url(#pe7339612a8)" style="fill: #d9d9d9; opacity: 0.35; stroke: #d9d9d9; stroke-linejoin: miter"/>
   </g>
   <g id="patch_49">
    <path d="M 80.418234 243.537908 
L 88.954947 243.537908 
L 88.954947 180.961937 
L 80.418234 180.961937 
z
" clip-path="url(#pe7339612a8)" style="fill: #c57a43"/>
   </g>
   <g id="patch_50">
    <path d="M 90.82886 243.537908 
L 99.365573 243.537908 
L 99.365573 171.590559 
L 90.82886 171.590559 
z
" clip-path="url(#pe7339612a8)" style="fill: #c57a43"/>
   </g>
   <g id="patch_51">
    <path d="M 101.239486 243.537908 
L 109.776199 243.537908 
L 109.776199 168.186426 
L 101.239486 168.186426 
z
" clip-path="url(#pe7339612a8)" style="fill: #c57a43"/>
   </g>
   <g id="patch_52">
    <path d="M 111.650111 243.537908 
L 120.186824 243.537908 
L 120.186824 197.929203 
L 111.650111 197.929203 
z
" clip-path="url(#pe7339612a8)" style="fill: #c57a43"/>
   </g>
   <g id="patch_53">
    <path d="M 122.060737 243.537908 
L 130.59745 243.537908 
L 130.59745 198.049349 
L 122.060737 198.049349 
z
" clip-path="url(#pe7339612a8)" style="fill: #c57a43"/>
   </g>
   <g id="patch_54">
    <path d="M 132.471363 243.537908 
L 141.008076 243.537908 
L 141.008076 192.1889 
L 132.471363 192.1889 
z
" clip-path="url(#pe7339612a8)" style="fill: #c57a43"/>
   </g>
   <g id="patch_55">
    <path d="M 142.881988 243.537908 
L 151.418701 243.537908 
L 151.418701 194.017787 
L 142.881988 194.017787 
z
" clip-path="url(#pe7339612a8)" style="fill: #c57a43"/>
   </g>
   <g id="patch_56">
    <path d="M 153.292614 243.537908 
L 161.829327 243.537908 
L 161.829327 195.893398 
L 153.292614 195.893398 
z
" clip-path="url(#pe7339612a8)" style="fill: #c57a43"/>
   </g>
   <g id="patch_57">
    <path d="M 163.70324 243.537908 
L 172.239953 243.537908 
L 172.239953 197.942552 
L 163.70324 197.942552 
z
" clip-path="url(#pe7339612a8)" style="fill: #c57a43"/>
   </g>
   <g id="patch_58">
    <path d="M 174.113865 243.537908 
L 182.650579 243.537908 
L 182.650579 193.430408 
L 174.113865 193.430408 
z
" clip-path="url(#pe7339612a8)" style="fill: #c57a43"/>
   </g>
   <g id="patch_59">
    <path d="M 184.524491 243.537908 
L 193.061204 243.537908 
L 193.061204 181.202228 
L 184.524491 181.202228 
z
" clip-path="url(#pe7339612a8)" style="fill: #c57a43"/>
   </g>
   <g id="patch_60">
    <path d="M 194.935117 243.537908 
L 203.47183 243.537908 
L 203.47183 188.511102 
L 194.935117 188.511102 
z
" clip-path="url(#pe7339612a8)" style="fill: #c57a43"/>
   </g>
   <g id="patch_61">
    <path d="M 205.345743 243.537908 
L 213.882456 243.537908 
L 213.882456 184.018981 
L 205.345743 184.018981 
z
" clip-path="url(#pe7339612a8)" style="fill: #c57a43"/>
   </g>
   <g id="patch_62">
    <path d="M 215.756368 243.537908 
L 224.293081 243.537908 
L 224.293081 193.063295 
L 215.756368 193.063295 
z
" clip-path="url(#pe7339612a8)" style="fill: #c57a43"/>
   </g>
   <g id="patch_63">
    <path d="M 226.166994 243.537908 
L 234.703707 243.537908 
L 234.703707 187.082701 
L 226.166994 187.082701 
z
" clip-path="url(#pe7339612a8)" style="fill: #c57a43"/>
   </g>
   <g id="patch_64">
    <path d="M 236.57762 243.537908 
L 245.114333 243.537908 
L 245.114333 204.570599 
L 236.57762 204.570599 
z
" clip-path="url(#pe7339612a8)" style="fill: #c57a43"/>
   </g>
   <g id="patch_65">
    <path d="M 246.988245 243.537908 
L 255.524958 243.537908 
L 255.524958 207.954708 
L 246.988245 207.954708 
z
" clip-path="url(#pe7339612a8)" style="fill: #c57a43"/>
   </g>
   <g id="patch_66">
    <path d="M 257.398871 243.537908 
L 265.935584 243.537908 
L 265.935584 217.379483 
L 257.398871 217.379483 
z
" clip-path="url(#pe7339612a8)" style="fill: #c57a43"/>
   </g>
   <g id="patch_67">
    <path d="M 267.809497 243.537908 
L 276.34621 243.537908 
L 276.34621 216.231423 
L 267.809497 216.231423 
z
" clip-path="url(#pe7339612a8)" style="fill: #c57a43"/>
   </g>
   <g id="patch_68">
    <path d="M 278.220122 243.537908 
L 286.756835 243.537908 
L 286.756835 211.572433 
L 278.220122 211.572433 
z
" clip-path="url(#pe7339612a8)" style="fill: #c57a43"/>
   </g>
   <g id="patch_69">
    <path d="M 288.630748 243.537908 
L 297.167461 243.537908 
L 297.167461 208.021455 
L 288.630748 208.021455 
z
" clip-path="url(#pe7339612a8)" style="fill: #c57a43"/>
   </g>
   <g id="patch_70">
    <path d="M 299.041374 243.537908 
L 307.578087 243.537908 
L 307.578087 212.233235 
L 299.041374 212.233235 
z
" clip-path="url(#pe7339612a8)" style="fill: #c57a43"/>
   </g>
   <g id="patch_71">
    <path d="M 309.451999 243.537908 
L 317.988713 243.537908 
L 317.988713 223.259956 
L 309.451999 223.259956 
z
" clip-path="url(#pe7339612a8)" style="fill: #c57a43"/>
   </g>
   <g id="patch_72">
    <path d="M 319.862625 243.537908 
L 328.399338 243.537908 
L 328.399338 213.508116 
L 319.862625 213.508116 
z
" clip-path="url(#pe7339612a8)" style="fill: #c57a43"/>
   </g>
   <g id="patch_73">
    <path d="M 330.273251 243.537908 
L 338.809964 243.537908 
L 338.809964 223.406801 
L 330.273251 223.406801 
z
" clip-path="url(#pe7339612a8)" style="fill: #c57a43"/>
   </g>
   <g id="patch_74">
    <path d="M 340.683877 243.537908 
L 349.22059 243.537908 
L 349.22059 232.344318 
L 340.683877 232.344318 
z
" clip-path="url(#pe7339612a8)" style="fill: #c57a43"/>
   </g>
   <g id="patch_75">
    <path d="M 351.094502 243.537908 
L 359.631215 243.537908 
L 359.631215 238.511806 
L 351.094502 238.511806 
z
" clip-path="url(#pe7339612a8)" style="fill: #c57a43"/>
   </g>
   <g id="patch_76">
    <path d="M 361.505128 243.537908 
L 370.041841 243.537908 
L 370.041841 225.689572 
L 361.505128 225.689572 
z
" clip-path="url(#pe7339612a8)" style="fill: #c57a43"/>
   </g>
   <g id="patch_77">
    <path d="M 371.915754 243.537908 
L 380.452467 243.537908 
L 380.452467 220.409829 
L 371.915754 220.409829 
z
" clip-path="url(#pe7339612a8)" style="fill: #c57a43"/>
   </g>
   <g id="patch_78">
    <path d="M 382.326379 243.537908 
L 390.863092 243.537908 
L 390.863092 216.892225 
L 382.326379 216.892225 
z
" clip-path="url(#pe7339612a8)" style="fill: #c57a43"/>
   </g>
   <g id="patch_79">
    <path d="M 392.737005 243.537908 
L 401.273718 243.537908 
L 401.273718 213.514791 
L 392.737005 213.514791 
z
" clip-path="url(#pe7339612a8)" style="fill: #c57a43"/>
   </g>
   <g id="patch_80">
    <path d="M 403.147631 243.537908 
L 411.684344 243.537908 
L 411.684344 214.863095 
L 403.147631 214.863095 
z
" clip-path="url(#pe7339612a8)" style="fill: #c57a43"/>
   </g>
   <g id="patch_81">
    <path d="M 413.558256 243.537908 
L 422.094969 243.537908 
L 422.094969 206.339413 
L 413.558256 206.339413 
z
" clip-path="url(#pe7339612a8)" style="fill: #c57a43"/>
   </g>
   <g id="patch_82">
    <path d="M 423.968882 243.537908 
L 432.505595 243.537908 
L 432.505595 199.404327 
L 423.968882 199.404327 
z
" clip-path="url(#pe7339612a8)" style="fill: #c57a43"/>
   </g>
   <g id="patch_83">
    <path d="M 434.379508 243.537908 
L 442.916221 243.537908 
L 442.916221 192.155526 
L 434.379508 192.155526 
z
" clip-path="url(#pe7339612a8)" style="fill: #c57a43"/>
   </g>
   <g id="patch_84">
    <path d="M 444.790133 243.537908 
L 453.326847 243.537908 
L 453.326847 202.915256 
L 444.790133 202.915256 
z
" clip-path="url(#pe7339612a8)" style="fill: #c57a43"/>
   </g>
   <g id="patch_85">
    <path d="M 455.200759 243.537908 
L 463.737472 243.537908 
L 463.737472 212.54695 
L 455.200759 212.54695 
z
" clip-path="url(#pe7339612a8)" style="fill: #c57a43"/>
   </g>
   <g id="patch_86">
    <path d="M 465.611385 243.537908 
L 474.148098 243.537908 
L 474.148098 184.900051 
L 465.611385 184.900051 
z
" clip-path="url(#pe7339612a8)" style="fill: #c57a43"/>
   </g>
   <g id="patch_87">
    <path d="M 476.022011 243.537908 
L 484.558724 243.537908 
L 484.558724 203.909797 
L 476.022011 203.909797 
z
" clip-path="url(#pe7339612a8)" style="fill: #c57a43"/>
   </g>
   <g id="matplotlib.axis_3">
    <g id="xtick_14">
     <g id="line2d_18">
      <g>
       <use xlink:href="#m95e7300291" x="84.686591" y="243.537908" style="stroke: #000000; stroke-width: 0.8"/>
      </g>
     </g>
    </g>
    <g id="xtick_15">
     <g id="line2d_19">
      <g>
       <use xlink:href="#m95e7300291" x="115.918468" y="243.537908" style="stroke: #000000; stroke-width: 0.8"/>
      </g>
     </g>
    </g>
    <g id="xtick_16">
     <g id="line2d_20">
      <g>
       <use xlink:href="#m95e7300291" x="147.150345" y="243.537908" style="stroke: #000000; stroke-width: 0.8"/>
      </g>
     </g>
    </g>
    <g id="xtick_17">
     <g id="line2d_21">
      <g>
       <use xlink:href="#m95e7300291" x="178.382222" y="243.537908" style="stroke: #000000; stroke-width: 0.8"/>
      </g>
     </g>
    </g>
    <g id="xtick_18">
     <g id="line2d_22">
      <g>
       <use xlink:href="#m95e7300291" x="209.614099" y="243.537908" style="stroke: #000000; stroke-width: 0.8"/>
      </g>
     </g>
    </g>
    <g id="xtick_19">
     <g id="line2d_23">
      <g>
       <use xlink:href="#m95e7300291" x="240.845976" y="243.537908" style="stroke: #000000; stroke-width: 0.8"/>
      </g>
     </g>
    </g>
    <g id="xtick_20">
     <g id="line2d_24">
      <g>
       <use xlink:href="#m95e7300291" x="272.077853" y="243.537908" style="stroke: #000000; stroke-width: 0.8"/>
      </g>
     </g>
    </g>
    <g id="xtick_21">
     <g id="line2d_25">
      <g>
       <use xlink:href="#m95e7300291" x="303.30973" y="243.537908" style="stroke: #000000; stroke-width: 0.8"/>
      </g>
     </g>
    </g>
    <g id="xtick_22">
     <g id="line2d_26">
      <g>
       <use xlink:href="#m95e7300291" x="334.541607" y="243.537908" style="stroke: #000000; stroke-width: 0.8"/>
      </g>
     </g>
    </g>
    <g id="xtick_23">
     <g id="line2d_27">
      <g>
       <use xlink:href="#m95e7300291" x="365.773484" y="243.537908" style="stroke: #000000; stroke-width: 0.8"/>
      </g>
     </g>
    </g>
    <g id="xtick_24">
     <g id="line2d_28">
      <g>
       <use xlink:href="#m95e7300291" x="397.005362" y="243.537908" style="stroke: #000000; stroke-width: 0.8"/>
      </g>
     </g>
    </g>
    <g id="xtick_25">
     <g id="line2d_29">
      <g>
       <use xlink:href="#m95e7300291" x="428.237239" y="243.537908" style="stroke: #000000; stroke-width: 0.8"/>
      </g>
     </g>
    </g>
    <g id="xtick_26">
     <g id="line2d_30">
      <g>
       <use xlink:href="#m95e7300291" x="459.469116" y="243.537908" style="stroke: #000000; stroke-width: 0.8"/>
      </g>
     </g>
    </g>
   </g>
   <g id="matplotlib.axis_4">
    <g id="ytick_5">
     <g id="line2d_31">
      <g>
       <use xlink:href="#mf4d218036f" x="59.180558" y="243.537908" style="stroke: #000000; stroke-width: 0.8"/>
      </g>
     </g>
     <g id="text_7">
      <text style="font-size: 6.2px; font-family: 'DejaVu Sans'; text-anchor: end" x="52.180558" y="245.893181" transform="rotate(-0 52.180558 245.893181)">0</text>
     </g>
    </g>
    <g id="ytick_6">
     <g id="line2d_32">
      <g>
       <use xlink:href="#mf4d218036f" x="59.180558" y="223.513597" style="stroke: #000000; stroke-width: 0.8"/>
      </g>
     </g>
     <g id="text_8">
      <text style="font-size: 6.2px; font-family: 'DejaVu Sans'; text-anchor: end" x="52.180558" y="225.86887" transform="rotate(-0 52.180558 225.86887)">3000</text>
     </g>
    </g>
    <g id="ytick_7">
     <g id="line2d_33">
      <g>
       <use xlink:href="#mf4d218036f" x="59.180558" y="203.489286" style="stroke: #000000; stroke-width: 0.8"/>
      </g>
     </g>
     <g id="text_9">
      <text style="font-size: 6.2px; font-family: 'DejaVu Sans'; text-anchor: end" x="52.180558" y="205.84456" transform="rotate(-0 52.180558 205.84456)">6000</text>
     </g>
    </g>
    <g id="ytick_8">
     <g id="line2d_34">
      <g>
       <use xlink:href="#mf4d218036f" x="59.180558" y="183.464976" style="stroke: #000000; stroke-width: 0.8"/>
      </g>
     </g>
     <g id="text_10">
      <text style="font-size: 6.2px; font-family: 'DejaVu Sans'; text-anchor: end" x="52.180558" y="185.820249" transform="rotate(-0 52.180558 185.820249)">9000</text>
     </g>
    </g>
    <g id="text_11">
     <text style="font-size: 7.5px; font-family: 'DejaVu Sans'; text-anchor: middle" x="30.5998" y="203.97838" transform="rotate(-90 30.5998 203.97838)">Records</text>
    </g>
   </g>
   <g id="patch_88">
    <path d="M 59.180558 243.537908 
L 59.180558 164.418852 
" style="fill: none; stroke: #777777; stroke-width: 0.8; stroke-linejoin: miter; stroke-linecap: square"/>
   </g>
   <g id="patch_89">
    <path d="M 59.180558 243.537908 
L 505.7964 243.537908 
" style="fill: none; stroke: #777777; stroke-width: 0.8; stroke-linejoin: miter; stroke-linecap: square"/>
   </g>
   <g id="text_12">
    <text style="font-weight: 700; font-size: 8.5px; font-family: 'DejaVu Sans'; text-anchor: start" x="59.180558" y="158.418852" transform="rotate(-0 59.180558 158.418852)">Ministerial written answers</text>
   </g>
  </g>
  <g id="axes_3">
   <g id="patch_90">
    <path d="M 59.180558 347.642416 
L 505.7964 347.642416 
L 505.7964 268.523361 
L 59.180558 268.523361 
z
" style="fill: #ffffff"/>
   </g>
   <g id="patch_91">
    <path d="M 79.481278 347.642416 
L 89.891904 347.642416 
L 89.891904 268.523361 
L 79.481278 268.523361 
z
" clip-path="url(#p63818227a7)" style="fill: #d9d9d9; opacity: 0.35; stroke: #d9d9d9; stroke-linejoin: miter"/>
   </g>
   <g id="patch_92">
    <path d="M 475.085054 347.642416 
L 485.49568 347.642416 
L 485.49568 268.523361 
L 475.085054 268.523361 
z
" clip-path="url(#p63818227a7)" style="fill: #d9d9d9; opacity: 0.35; stroke: #d9d9d9; stroke-linejoin: miter"/>
   </g>
   <g id="patch_93">
    <path d="M 80.418234 347.642416 
L 88.954947 347.642416 
L 88.954947 347.642416 
L 80.418234 347.642416 
z
" clip-path="url(#p63818227a7)" style="fill: #6f7d4c"/>
   </g>
   <g id="patch_94">
    <path d="M 90.82886 347.642416 
L 99.365573 347.642416 
L 99.365573 347.642416 
L 90.82886 347.642416 
z
" clip-path="url(#p63818227a7)" style="fill: #6f7d4c"/>
   </g>
   <g id="patch_95">
    <path d="M 101.239486 347.642416 
L 109.776199 347.642416 
L 109.776199 347.642416 
L 101.239486 347.642416 
z
" clip-path="url(#p63818227a7)" style="fill: #6f7d4c"/>
   </g>
   <g id="patch_96">
    <path d="M 111.650111 347.642416 
L 120.186824 347.642416 
L 120.186824 347.642416 
L 111.650111 347.642416 
z
" clip-path="url(#p63818227a7)" style="fill: #6f7d4c"/>
   </g>
   <g id="patch_97">
    <path d="M 122.060737 347.642416 
L 130.59745 347.642416 
L 130.59745 347.642416 
L 122.060737 347.642416 
z
" clip-path="url(#p63818227a7)" style="fill: #6f7d4c"/>
   </g>
   <g id="patch_98">
    <path d="M 132.471363 347.642416 
L 141.008076 347.642416 
L 141.008076 347.642416 
L 132.471363 347.642416 
z
" clip-path="url(#p63818227a7)" style="fill: #6f7d4c"/>
   </g>
   <g id="patch_99">
    <path d="M 142.881988 347.642416 
L 151.418701 347.642416 
L 151.418701 347.642416 
L 142.881988 347.642416 
z
" clip-path="url(#p63818227a7)" style="fill: #6f7d4c"/>
   </g>
   <g id="patch_100">
    <path d="M 153.292614 347.642416 
L 161.829327 347.642416 
L 161.829327 347.642416 
L 153.292614 347.642416 
z
" clip-path="url(#p63818227a7)" style="fill: #6f7d4c"/>
   </g>
   <g id="patch_101">
    <path d="M 163.70324 347.642416 
L 172.239953 347.642416 
L 172.239953 347.642416 
L 163.70324 347.642416 
z
" clip-path="url(#p63818227a7)" style="fill: #6f7d4c"/>
   </g>
   <g id="patch_102">
    <path d="M 174.113865 347.642416 
L 182.650579 347.642416 
L 182.650579 347.642416 
L 174.113865 347.642416 
z
" clip-path="url(#p63818227a7)" style="fill: #6f7d4c"/>
   </g>
   <g id="patch_103">
    <path d="M 184.524491 347.642416 
L 193.061204 347.642416 
L 193.061204 347.642416 
L 184.524491 347.642416 
z
" clip-path="url(#p63818227a7)" style="fill: #6f7d4c"/>
   </g>
   <g id="patch_104">
    <path d="M 194.935117 347.642416 
L 203.47183 347.642416 
L 203.47183 347.642416 
L 194.935117 347.642416 
z
" clip-path="url(#p63818227a7)" style="fill: #6f7d4c"/>
   </g>
   <g id="patch_105">
    <path d="M 205.345743 347.642416 
L 213.882456 347.642416 
L 213.882456 347.642416 
L 205.345743 347.642416 
z
" clip-path="url(#p63818227a7)" style="fill: #6f7d4c"/>
   </g>
   <g id="patch_106">
    <path d="M 215.756368 347.642416 
L 224.293081 347.642416 
L 224.293081 347.642416 
L 215.756368 347.642416 
z
" clip-path="url(#p63818227a7)" style="fill: #6f7d4c"/>
   </g>
   <g id="patch_107">
    <path d="M 226.166994 347.642416 
L 234.703707 347.642416 
L 234.703707 336.976225 
L 226.166994 336.976225 
z
" clip-path="url(#p63818227a7)" style="fill: #6f7d4c"/>
   </g>
   <g id="patch_108">
    <path d="M 236.57762 347.642416 
L 245.114333 347.642416 
L 245.114333 272.290935 
L 236.57762 272.290935 
z
" clip-path="url(#p63818227a7)" style="fill: #6f7d4c"/>
   </g>
   <g id="patch_109">
    <path d="M 246.988245 347.642416 
L 255.524958 347.642416 
L 255.524958 298.440308 
L 246.988245 298.440308 
z
" clip-path="url(#p63818227a7)" style="fill: #6f7d4c"/>
   </g>
   <g id="patch_110">
    <path d="M 257.398871 347.642416 
L 265.935584 347.642416 
L 265.935584 300.160661 
L 257.398871 300.160661 
z
" clip-path="url(#p63818227a7)" style="fill: #6f7d4c"/>
   </g>
   <g id="patch_111">
    <path d="M 267.809497 347.642416 
L 276.34621 347.642416 
L 276.34621 280.548632 
L 267.809497 280.548632 
z
" clip-path="url(#p63818227a7)" style="fill: #6f7d4c"/>
   </g>
   <g id="patch_112">
    <path d="M 278.220122 347.642416 
L 286.756835 347.642416 
L 286.756835 281.580844 
L 278.220122 281.580844 
z
" clip-path="url(#p63818227a7)" style="fill: #6f7d4c"/>
   </g>
   <g id="patch_113">
    <path d="M 288.630748 347.642416 
L 297.167461 347.642416 
L 297.167461 298.784378 
L 288.630748 298.784378 
z
" clip-path="url(#p63818227a7)" style="fill: #6f7d4c"/>
   </g>
   <g id="patch_114">
    <path d="M 299.041374 347.642416 
L 307.578087 347.642416 
L 307.578087 301.881014 
L 299.041374 301.881014 
z
" clip-path="url(#p63818227a7)" style="fill: #6f7d4c"/>
   </g>
   <g id="patch_115">
    <path d="M 309.451999 347.642416 
L 317.988713 347.642416 
L 317.988713 312.547206 
L 309.451999 312.547206 
z
" clip-path="url(#p63818227a7)" style="fill: #6f7d4c"/>
   </g>
   <g id="patch_116">
    <path d="M 319.862625 347.642416 
L 328.399338 347.642416 
L 328.399338 304.63358 
L 319.862625 304.63358 
z
" clip-path="url(#p63818227a7)" style="fill: #6f7d4c"/>
   </g>
   <g id="patch_117">
    <path d="M 330.273251 347.642416 
L 338.809964 347.642416 
L 338.809964 312.547206 
L 330.273251 312.547206 
z
" clip-path="url(#p63818227a7)" style="fill: #6f7d4c"/>
   </g>
   <g id="patch_118">
    <path d="M 340.683877 347.642416 
L 349.22059 347.642416 
L 349.22059 297.752166 
L 340.683877 297.752166 
z
" clip-path="url(#p63818227a7)" style="fill: #6f7d4c"/>
   </g>
   <g id="patch_119">
    <path d="M 351.094502 347.642416 
L 359.631215 347.642416 
L 359.631215 322.181185 
L 351.094502 322.181185 
z
" clip-path="url(#p63818227a7)" style="fill: #6f7d4c"/>
   </g>
   <g id="patch_120">
    <path d="M 361.505128 347.642416 
L 370.041841 347.642416 
L 370.041841 325.621892 
L 361.505128 325.621892 
z
" clip-path="url(#p63818227a7)" style="fill: #6f7d4c"/>
   </g>
   <g id="patch_121">
    <path d="M 371.915754 347.642416 
L 380.452467 347.642416 
L 380.452467 328.718528 
L 371.915754 328.718528 
z
" clip-path="url(#p63818227a7)" style="fill: #6f7d4c"/>
   </g>
   <g id="patch_122">
    <path d="M 382.326379 347.642416 
L 390.863092 347.642416 
L 390.863092 322.869327 
L 382.326379 322.869327 
z
" clip-path="url(#p63818227a7)" style="fill: #6f7d4c"/>
   </g>
   <g id="patch_123">
    <path d="M 392.737005 347.642416 
L 401.273718 347.642416 
L 401.273718 312.891277 
L 392.737005 312.891277 
z
" clip-path="url(#p63818227a7)" style="fill: #6f7d4c"/>
   </g>
   <g id="patch_124">
    <path d="M 403.147631 347.642416 
L 411.684344 347.642416 
L 411.684344 310.482782 
L 403.147631 310.482782 
z
" clip-path="url(#p63818227a7)" style="fill: #6f7d4c"/>
   </g>
   <g id="patch_125">
    <path d="M 413.558256 347.642416 
L 422.094969 347.642416 
L 422.094969 320.804903 
L 413.558256 320.804903 
z
" clip-path="url(#p63818227a7)" style="fill: #6f7d4c"/>
   </g>
   <g id="patch_126">
    <path d="M 423.968882 347.642416 
L 432.505595 347.642416 
L 432.505595 316.676054 
L 423.968882 316.676054 
z
" clip-path="url(#p63818227a7)" style="fill: #6f7d4c"/>
   </g>
   <g id="patch_127">
    <path d="M 434.379508 347.642416 
L 442.916221 347.642416 
L 442.916221 318.740478 
L 434.379508 318.740478 
z
" clip-path="url(#p63818227a7)" style="fill: #6f7d4c"/>
   </g>
   <g id="patch_128">
    <path d="M 444.790133 347.642416 
L 453.326847 347.642416 
L 453.326847 323.557468 
L 444.790133 323.557468 
z
" clip-path="url(#p63818227a7)" style="fill: #6f7d4c"/>
   </g>
   <g id="patch_129">
    <path d="M 455.200759 347.642416 
L 463.737472 347.642416 
L 463.737472 321.148973 
L 455.200759 321.148973 
z
" clip-path="url(#p63818227a7)" style="fill: #6f7d4c"/>
   </g>
   <g id="patch_130">
    <path d="M 465.611385 347.642416 
L 474.148098 347.642416 
L 474.148098 317.708266 
L 465.611385 317.708266 
z
" clip-path="url(#p63818227a7)" style="fill: #6f7d4c"/>
   </g>
   <g id="patch_131">
    <path d="M 476.022011 347.642416 
L 484.558724 347.642416 
L 484.558724 320.804903 
L 476.022011 320.804903 
z
" clip-path="url(#p63818227a7)" style="fill: #6f7d4c"/>
   </g>
   <g id="matplotlib.axis_5">
    <g id="xtick_27">
     <g id="line2d_35">
      <g>
       <use xlink:href="#m95e7300291" x="84.686591" y="347.642416" style="stroke: #000000; stroke-width: 0.8"/>
      </g>
     </g>
     <g id="text_13">
      <text style="font-size: 6.2px; font-family: 'DejaVu Sans'" transform="translate(80.2467 369.130714) rotate(-45)">1988</text>
     </g>
    </g>
    <g id="xtick_28">
     <g id="line2d_36">
      <g>
       <use xlink:href="#m95e7300291" x="115.918468" y="347.642416" style="stroke: #000000; stroke-width: 0.8"/>
      </g>
     </g>
     <g id="text_14">
      <text style="font-size: 6.2px; font-family: 'DejaVu Sans'" transform="translate(111.478578 369.130714) rotate(-45)">1991</text>
     </g>
    </g>
    <g id="xtick_29">
     <g id="line2d_37">
      <g>
       <use xlink:href="#m95e7300291" x="147.150345" y="347.642416" style="stroke: #000000; stroke-width: 0.8"/>
      </g>
     </g>
     <g id="text_15">
      <text style="font-size: 6.2px; font-family: 'DejaVu Sans'" transform="translate(142.710455 369.130714) rotate(-45)">1994</text>
     </g>
    </g>
    <g id="xtick_30">
     <g id="line2d_38">
      <g>
       <use xlink:href="#m95e7300291" x="178.382222" y="347.642416" style="stroke: #000000; stroke-width: 0.8"/>
      </g>
     </g>
     <g id="text_16">
      <text style="font-size: 6.2px; font-family: 'DejaVu Sans'" transform="translate(173.942332 369.130714) rotate(-45)">1997</text>
     </g>
    </g>
    <g id="xtick_31">
     <g id="line2d_39">
      <g>
       <use xlink:href="#m95e7300291" x="209.614099" y="347.642416" style="stroke: #000000; stroke-width: 0.8"/>
      </g>
     </g>
     <g id="text_17">
      <text style="font-size: 6.2px; font-family: 'DejaVu Sans'" transform="translate(205.174209 369.130714) rotate(-45)">2000</text>
     </g>
    </g>
    <g id="xtick_32">
     <g id="line2d_40">
      <g>
       <use xlink:href="#m95e7300291" x="240.845976" y="347.642416" style="stroke: #000000; stroke-width: 0.8"/>
      </g>
     </g>
     <g id="text_18">
      <text style="font-size: 6.2px; font-family: 'DejaVu Sans'" transform="translate(236.406086 369.130714) rotate(-45)">2003</text>
     </g>
    </g>
    <g id="xtick_33">
     <g id="line2d_41">
      <g>
       <use xlink:href="#m95e7300291" x="272.077853" y="347.642416" style="stroke: #000000; stroke-width: 0.8"/>
      </g>
     </g>
     <g id="text_19">
      <text style="font-size: 6.2px; font-family: 'DejaVu Sans'" transform="translate(267.637963 369.130714) rotate(-45)">2006</text>
     </g>
    </g>
    <g id="xtick_34">
     <g id="line2d_42">
      <g>
       <use xlink:href="#m95e7300291" x="303.30973" y="347.642416" style="stroke: #000000; stroke-width: 0.8"/>
      </g>
     </g>
     <g id="text_20">
      <text style="font-size: 6.2px; font-family: 'DejaVu Sans'" transform="translate(298.86984 369.130714) rotate(-45)">2009</text>
     </g>
    </g>
    <g id="xtick_35">
     <g id="line2d_43">
      <g>
       <use xlink:href="#m95e7300291" x="334.541607" y="347.642416" style="stroke: #000000; stroke-width: 0.8"/>
      </g>
     </g>
     <g id="text_21">
      <text style="font-size: 6.2px; font-family: 'DejaVu Sans'" transform="translate(330.101717 369.130714) rotate(-45)">2012</text>
     </g>
    </g>
    <g id="xtick_36">
     <g id="line2d_44">
      <g>
       <use xlink:href="#m95e7300291" x="365.773484" y="347.642416" style="stroke: #000000; stroke-width: 0.8"/>
      </g>
     </g>
     <g id="text_22">
      <text style="font-size: 6.2px; font-family: 'DejaVu Sans'" transform="translate(361.333594 369.130714) rotate(-45)">2015</text>
     </g>
    </g>
    <g id="xtick_37">
     <g id="line2d_45">
      <g>
       <use xlink:href="#m95e7300291" x="397.005362" y="347.642416" style="stroke: #000000; stroke-width: 0.8"/>
      </g>
     </g>
     <g id="text_23">
      <text style="font-size: 6.2px; font-family: 'DejaVu Sans'" transform="translate(392.565471 369.130714) rotate(-45)">2018</text>
     </g>
    </g>
    <g id="xtick_38">
     <g id="line2d_46">
      <g>
       <use xlink:href="#m95e7300291" x="428.237239" y="347.642416" style="stroke: #000000; stroke-width: 0.8"/>
      </g>
     </g>
     <g id="text_24">
      <text style="font-size: 6.2px; font-family: 'DejaVu Sans'" transform="translate(423.797348 369.130714) rotate(-45)">2021</text>
     </g>
    </g>
    <g id="xtick_39">
     <g id="line2d_47">
      <g>
       <use xlink:href="#m95e7300291" x="459.469116" y="347.642416" style="stroke: #000000; stroke-width: 0.8"/>
      </g>
     </g>
     <g id="text_25">
      <text style="font-size: 6.2px; font-family: 'DejaVu Sans'" transform="translate(455.029225 369.130714) rotate(-45)">2024</text>
     </g>
    </g>
    <g id="text_26">
     <text style="font-size: 7.5px; font-family: 'DejaVu Sans'; text-anchor: middle" x="282.488479" y="379.882744" transform="rotate(-0 282.488479 379.882744)">Parliamentary/publication year</text>
    </g>
   </g>
   <g id="matplotlib.axis_6">
    <g id="ytick_9">
     <g id="line2d_48">
      <g>
       <use xlink:href="#mf4d218036f" x="59.180558" y="347.642416" style="stroke: #000000; stroke-width: 0.8"/>
      </g>
     </g>
     <g id="text_27">
      <text style="font-size: 6.2px; font-family: 'DejaVu Sans'; text-anchor: end" x="52.180558" y="349.99769" transform="rotate(-0 52.180558 349.99769)">0</text>
     </g>
    </g>
    <g id="ytick_10">
     <g id="line2d_49">
      <g>
       <use xlink:href="#mf4d218036f" x="59.180558" y="326.998175" style="stroke: #000000; stroke-width: 0.8"/>
      </g>
     </g>
     <g id="text_28">
      <text style="font-size: 6.2px; font-family: 'DejaVu Sans'; text-anchor: end" x="52.180558" y="329.353448" transform="rotate(-0 52.180558 329.353448)">60</text>
     </g>
    </g>
    <g id="ytick_11">
     <g id="line2d_50">
      <g>
       <use xlink:href="#mf4d218036f" x="59.180558" y="306.353933" style="stroke: #000000; stroke-width: 0.8"/>
      </g>
     </g>
     <g id="text_29">
      <text style="font-size: 6.2px; font-family: 'DejaVu Sans'; text-anchor: end" x="52.180558" y="308.709207" transform="rotate(-0 52.180558 308.709207)">120</text>
     </g>
    </g>
    <g id="ytick_12">
     <g id="line2d_51">
      <g>
       <use xlink:href="#mf4d218036f" x="59.180558" y="285.709692" style="stroke: #000000; stroke-width: 0.8"/>
      </g>
     </g>
     <g id="text_30">
      <text style="font-size: 6.2px; font-family: 'DejaVu Sans'; text-anchor: end" x="52.180558" y="288.064965" transform="rotate(-0 52.180558 288.064965)">180</text>
     </g>
    </g>
    <g id="text_31">
     <text style="font-size: 7.5px; font-family: 'DejaVu Sans'; text-anchor: middle" x="34.54455" y="308.082889" transform="rotate(-90 34.54455 308.082889)">Records</text>
    </g>
   </g>
   <g id="patch_132">
    <path d="M 59.180558 347.642416 
L 59.180558 268.523361 
" style="fill: none; stroke: #777777; stroke-width: 0.8; stroke-linejoin: miter; stroke-linecap: square"/>
   </g>
   <g id="patch_133">
    <path d="M 59.180558 347.642416 
L 505.7964 347.642416 
" style="fill: none; stroke: #777777; stroke-width: 0.8; stroke-linejoin: miter; stroke-linecap: square"/>
   </g>
   <g id="text_32">
    <text style="font-weight: 700; font-size: 8.5px; font-family: 'DejaVu Sans'; text-anchor: start" x="59.180558" y="262.523361" transform="rotate(-0 59.180558 262.523361)">Ministerial written statements</text>
   </g>
  </g>
  <g id="text_33">
   <text style="font-weight: 700; font-size: 10px; font-family: 'DejaVu Sans'; text-anchor: start" x="5.1876" y="16.094437" transform="rotate(-0 5.1876 16.094437)">Annual records by independent government-text series</text>
  </g>
  <g id="text_34">
   <text style="font-size: 6.2px; font-family: 'DejaVu Sans'; text-anchor: start; fill: #555555" x="5.1876" y="419.7024" transform="rotate(-0 5.1876 419.7024)">Counts are records, not speeches of all government or complete policy coverage. 1988 and 2026 are partial study years; cutoff 21 Sep 2026.</text>
  </g>
 </g>
 <defs>
  <clipPath id="p7106f9b0a0">
   <rect x="59.180558" y="60.314344" width="446.615842" height="79.119055"/>
  </clipPath>
  <clipPath id="pe7339612a8">
   <rect x="59.180558" y="164.418852" width="446.615842" height="79.119055"/>
  </clipPath>
  <clipPath id="p63818227a7">
   <rect x="59.180558" y="268.523361" width="446.615842" height="79.119055"/>
  </clipPath>
 </defs>
</svg>
